<?xml version="1.0" standalone="no"?>
<svg version="1.0" xmlns="http://www.w3.org/2000/svg"
 width="187.000000pt" height="70.000000pt" viewBox="0 0 187.000000 70.000000"
 preserveAspectRatio="xMidYMid meet">
<g transform="translate(0.000000,70.000000) scale(0.100000,-0.100000)"
fill="rgb(234 179 8)" stroke="none">
<path d="M382 628 c-5 -7 -21 -37 -36 -65 -19 -39 -32 -53 -47 -53 -15 0 -19
5 -16 15 9 22 -11 28 -22 7 -8 -15 -26 -21 -78 -26 -87 -8 -166 -29 -171 -44
-6 -19 83 -15 102 4 9 8 41 18 71 21 46 5 55 3 55 -10 0 -9 -4 -18 -9 -21 -18
-11 -72 -224 -69 -272 5 -71 23 -65 24 9 1 43 13 99 41 182 37 113 40 120 67
123 24 3 28 1 21 -15 -4 -10 -20 -52 -35 -93 -15 -41 -31 -82 -35 -91 -15 -38
16 -26 45 16 34 50 54 59 44 20 -7 -30 -11 -30 54 -5 65 25 72 25 72 0 0 -23
3 -24 31 -7 18 10 23 9 26 -1 4 -10 10 -10 29 3 21 14 24 14 24 0 0 -21 24
-19 45 5 22 25 95 29 95 5 0 -23 18 -18 45 13 l24 27 1 -27 c0 -37 17 -44 50
-20 19 15 30 18 38 10 13 -13 40 3 86 48 l29 29 -6 -38 c-5 -31 -20 -52 -81
-111 -102 -98 -130 -167 -86 -214 12 -12 29 -22 40 -22 37 0 84 85 120 220 7
25 14 50 16 57 4 15 53 48 60 40 3 -3 1 -14 -4 -24 -16 -29 -34 -143 -27 -170
11 -45 26 -18 29 52 2 64 49 231 76 275 8 12 34 15 135 14 69 -1 125 2 125 7
0 10 -51 13 -171 11 -72 -1 -77 0 -72 18 7 26 -14 26 -22 0 -5 -15 -15 -20
-39 -20 -75 0 -216 -34 -216 -52 0 -15 87 -4 125 16 17 9 49 16 72 16 l42 0
-19 -46 c-11 -25 -20 -52 -20 -59 0 -7 -8 -15 -17 -18 -10 -2 -26 -8 -35 -12
-15 -6 -16 -3 -3 46 15 55 8 81 -15 54 -7 -8 -23 -15 -35 -15 -13 0 -38 -14
-56 -32 -19 -18 -49 -43 -68 -56 l-34 -23 6 34 c7 44 0 51 -30 32 -13 -9 -23
-11 -23 -5 0 5 -4 10 -10 10 -5 0 -10 -7 -10 -15 0 -11 -12 -15 -46 -15 -39 0
-45 3 -40 18 3 9 1 24 -4 32 -13 20 -44 1 -48 -29 -2 -11 -10 -21 -17 -21 -8
0 -19 -8 -25 -17 -9 -16 -10 -15 -5 5 6 22 -8 31 -20 12 -3 -5 -15 -15 -26
-21 -20 -10 -20 -10 -3 16 9 14 14 29 10 33 -4 4 -12 -1 -17 -11 -6 -9 -20
-17 -32 -17 -12 -1 -39 -7 -59 -14 -35 -13 -38 -12 -38 5 0 24 -27 25 -52 2
-31 -28 -20 -9 21 36 22 24 45 57 52 73 11 28 12 28 75 22 45 -5 64 -3 64 5 0
7 -22 11 -61 11 -54 0 -60 2 -54 18 4 9 10 38 12 65 5 37 2 47 -10 47 -8 0
-19 -6 -25 -12z m8 -79 c-7 -22 -19 -39 -27 -39 -18 0 -16 14 9 63 25 49 37
34 18 -24z m-34 -76 c-8 -16 -22 -37 -31 -48 -16 -20 -16 -19 -9 5 14 52 24
70 39 70 14 0 14 -3 1 -27z m583 -79 c-29 -31 -66 -53 -54 -32 16 28 49 58 63
58 11 0 9 -7 -9 -26z m-329 -38 c0 -15 -18 -31 -26 -23 -7 7 7 37 17 37 5 0 9
-6 9 -14z m318 -163 c-16 -50 -41 -103 -54 -119 l-24 -29 -20 24 c-25 29 -19
60 27 123 33 45 92 102 99 96 2 -2 -11 -45 -28 -95z"/>
<path d="M1776 455 c-3 -8 -16 -15 -30 -15 -15 0 -47 -19 -83 -50 -70 -60 -86
-64 -77 -15 7 41 0 44 -33 13 -19 -17 -23 -19 -17 -5 3 10 1 17 -5 17 -7 0
-14 -7 -17 -15 -4 -10 -20 -15 -46 -15 -33 0 -38 3 -34 18 9 28 -10 49 -31 36
-23 -14 -29 -44 -11 -55 10 -7 9 -12 -6 -26 -17 -17 -18 -17 -11 5 8 27 -10
30 -37 5 -20 -18 -25 -4 -6 15 23 23 -14 13 -39 -10 -13 -12 -23 -17 -23 -11
0 6 7 16 15 23 8 7 12 17 8 23 -4 6 -10 5 -17 -4 -15 -19 -93 -69 -107 -69 -6
0 5 20 25 44 40 49 43 56 21 56 -8 0 -15 5 -15 11 0 7 -10 9 -27 4 -37 -9 -52
-23 -34 -34 11 -7 9 -13 -8 -30 -21 -21 -28 -41 -13 -41 4 0 18 16 32 35 14
19 31 35 37 35 7 0 -3 -21 -22 -46 -19 -25 -35 -50 -35 -56 0 -15 49 -1 82 22
33 24 39 25 32 5 -7 -18 0 -19 27 -4 15 7 24 7 33 0 10 -8 17 -7 26 4 16 19
30 19 30 0 0 -21 24 -19 45 5 22 25 95 29 95 5 0 -23 18 -18 36 10 18 27 37
34 28 10 -4 -8 -1 -22 6 -30 11 -14 17 -13 46 4 19 12 36 16 39 10 11 -16 24
-10 71 33 l46 42 -7 -39 c-6 -32 -20 -52 -71 -98 -106 -97 -139 -177 -94 -225
28 -29 47 -28 79 7 26 28 74 151 86 222 5 29 15 41 46 58 22 13 37 27 33 32
-3 6 -16 4 -31 -6 -14 -9 -26 -15 -28 -13 -2 2 3 26 10 53 7 28 11 53 8 58 -7
12 -20 8 -27 -8z m-36 -42 c0 -13 -44 -53 -59 -53 -10 0 -6 9 14 30 28 29 45
38 45 23z m-11 -183 c-46 -148 -80 -197 -113 -161 -23 25 -20 52 10 97 28 42
104 124 115 124 4 0 -2 -27 -12 -60z"/>
</g>
</svg>
