<svg width="16" height="16" viewBox="0 0 16 16" fill="none" xmlns="http://www.w3.org/2000/svg">
<path d="M2 15V1H6.92486C8.45512 1 9.73931 1.33407 10.8122 2.02003C11.8675 2.68838 12.6766 3.56778 13.2043 4.64063C13.7319 5.71347 14.0134 6.83913 14.0134 8C14.0134 9.17847 13.7495 10.3039 13.2043 11.3594C12.6766 12.4322 11.8675 13.294 10.8122 13.98C9.7567 14.6483 8.45512 15 6.92486 15H2.91467C2.639 15 2.08486 15 2 15Z" fill="#080808"/>
<path d="M3.98761 4.14835H8.98289C9.40502 4.14835 9.75672 4.50002 9.75672 4.92212C9.75672 5.34421 9.40502 5.6961 8.98289 5.6961H3.98761V4.14835Z" fill="#3DDC97"/>
<path d="M3.98761 10.2689H10.1086C10.5308 10.2689 10.8825 10.6206 10.8825 11.0427C10.8825 11.4648 10.5308 11.8167 10.1086 11.8167H3.98761V10.2689Z" fill="#F12A1F"/>
<path d="M3.98761 7.20862H7.45264C7.87477 7.20862 8.22647 7.5603 8.22647 7.98239C8.22647 8.40449 7.87477 8.75637 7.45264 8.75637H3.98761V7.20862Z" fill="#FFB400"/>
</svg>
